<svg xmlns="http://www.w3.org/2000/svg" xmlns:xlink="http://www.w3.org/1999/xlink" width="240" height="180" viewBox="0 0 240 180">
  <defs>
    <clipPath id="clip-path">
      <rect id="長方形_1253" data-name="長方形 1253" width="175" height="175.8" fill="none"/>
    </clipPath>
    <clipPath id="clip-path-3">
      <rect id="長方形_1248" data-name="長方形 1248" width="88.606" height="66.188" fill="none"/>
    </clipPath>
    <clipPath id="clip-path-4">
      <rect id="長方形_1249" data-name="長方形 1249" width="88.824" height="81.712" fill="none"/>
    </clipPath>
    <clipPath id="clip-path-5">
      <rect id="長方形_1250" data-name="長方形 1250" width="61.878" height="29.942" fill="none"/>
    </clipPath>
    <clipPath id="clip-path-6">
      <rect id="長方形_1251" data-name="長方形 1251" width="17.805" height="17.8" fill="none"/>
    </clipPath>
  </defs>
  <g id="img_step3" transform="translate(32 2)">
    <rect id="長方形_1265" data-name="長方形 1265" width="240" height="180" transform="translate(-32 -2)" fill="none"/>
    <g id="グループ_193" data-name="グループ 193" transform="translate(10)" clip-path="url(#clip-path)">
      <g id="グループ_192" data-name="グループ 192">
        <g id="グループ_191" data-name="グループ 191" clip-path="url(#clip-path)">
          <path id="パス_57" data-name="パス 57" d="M74.011,175.45,5.18,154.536A7.3,7.3,0,0,1,.35,145.23L42.89,5.223A7.155,7.155,0,0,1,52.028.349l68.831,20.914c4.044,1.238,6.727,5.374,5.517,9.327L83.837,170.6c-1.21,3.953-5.782,6.091-9.826,4.854" transform="translate(0 0)" fill="#f1890e"/>
          <path id="パス_58" data-name="パス 58" d="M1.064,145.449,43.609,5.443A7.1,7.1,0,0,1,52.627.532l.011,0-.61-.185A7.155,7.155,0,0,0,42.89,5.224L.35,145.23a7.3,7.3,0,0,0,4.829,9.306l.548.166a7.246,7.246,0,0,1-4.664-9.254" transform="translate(0 0)" fill="#f1890e"/>
          <path id="パス_59" data-name="パス 59" d="M202.365,44.686l-.536-.163c3.949,1.234,6.545,5.335,5.34,9.272L164.624,193.8a7.806,7.806,0,0,1-9.695,4.893h-.007l.594.181c4.045,1.238,8.616-.9,9.826-4.854l42.54-140.007c1.21-3.953-1.473-8.089-5.517-9.327" transform="translate(-81.505 -23.424)" fill="#f1890e"/>
          <path id="パス_60" data-name="パス 60" d="M87.944,314.063a4.914,4.914,0,1,1-5.509,1.352,4.918,4.918,0,0,1,5.509-1.352" transform="translate(-42.737 -165.049)" fill="#cc761a"/>
          <path id="パス_61" data-name="パス 61" d="M92.809,314.752a4.9,4.9,0,0,0-1.365-.568,4.912,4.912,0,0,1-2.837,9.393,4.912,4.912,0,0,0,4.2-8.824" transform="translate(-46.616 -165.293)" fill="#ef9d43"/>
          <path id="パス_62" data-name="パス 62" d="M83.574,322.833a4.912,4.912,0,0,1,3.725-8.97,4.912,4.912,0,1,0-2.837,9.393,4.964,4.964,0,0,1-.888-.423" transform="translate(-42.472 -164.973)" fill="#aa600f"/>
          <line id="線_3" data-name="線 3" x2="12.136" y2="3.687" transform="translate(78.659 13.959)" fill="none" stroke="#cc7619" stroke-linecap="round" stroke-width="3"/>
          <rect id="長方形_1247" data-name="長方形 1247" width="126.747" height="72.091" transform="matrix(0.291, -0.957, 0.957, 0.291, 11.926, 132.32)" fill="#d8d8d8"/>
          <g id="グループ_181" data-name="グループ 181" transform="translate(28.661 11.048)" opacity="0.16">
            <g id="グループ_180" data-name="グループ 180">
              <g id="グループ_179" data-name="グループ 179" clip-path="url(#clip-path-3)">
                <path id="パス_63" data-name="パス 63" d="M80.591,23.313,60.48,89.5l88.606-45.377Z" transform="translate(-60.48 -23.313)" fill="#fff"/>
              </g>
            </g>
          </g>
          <path id="パス_64" data-name="パス 64" d="M142.922,173.969a3.2,3.2,0,0,1-1.239,1.387,3.064,3.064,0,0,1-2.539.175,3.411,3.411,0,0,1-2.4-4.646,3.372,3.372,0,0,1,4.566-2.47,3.077,3.077,0,0,1,2.083,1.815,2.716,2.716,0,0,1,.148,1.374l-2.066-.237a1.222,1.222,0,0,0-.072-.708,1.077,1.077,0,0,0-.683-.642c-.908-.276-1.6.242-1.977,1.468a2.294,2.294,0,0,0,.024,1.727,1.345,1.345,0,0,0,.767.624,1.184,1.184,0,0,0,.895-.058,1.144,1.144,0,0,0,.59-.682Z" transform="translate(-71.828 -88.493)" fill="#fff"/>
          <path id="パス_65" data-name="パス 65" d="M155.806,177.152a3.7,3.7,0,0,0-1.524-.82,3.513,3.513,0,0,0-2.054-.136,1.808,1.808,0,0,0-1.074.819l1.722.828a.734.734,0,0,1,.936-.307c.406.124.583.369.489.678l-.065.215c-.665-.185-1.28-.337-1.586-.387a3.79,3.79,0,0,0-1.321,0,1.394,1.394,0,0,0-1.093,1.049,1.624,1.624,0,0,0,.223,1.5,2.322,2.322,0,0,0,1.2.738,3,3,0,0,0,1.153.125,1.382,1.382,0,0,0,.574-.234l-.135.445,1.822.554,1.022-3.365a1.665,1.665,0,0,0-.29-1.7m-1.993,2.669a.984.984,0,0,1-1.25.481c-.366-.111-.536-.354-.446-.649.082-.27.306-.376.758-.352a4.72,4.72,0,0,1,1.033.209Z" transform="translate(-78.993 -92.645)" fill="#fff"/>
          <path id="パス_66" data-name="パス 66" d="M169.369,180.426a2.594,2.594,0,0,0-1.747.084,2.577,2.577,0,0,0-2.093-1.151l.058-.193-1.832-.557-1.577,5.192,1.832.556.79-2.6a.689.689,0,0,1,1.319.4l-.79,2.6,1.832.557.79-2.6a.689.689,0,0,1,1.319.4l-.79,2.6,1.832.557.789-2.6a2.606,2.606,0,0,0-1.735-3.249" transform="translate(-85.323 -93.967)" fill="#fff"/>
          <path id="パス_67" data-name="パス 67" d="M180.211,190.729l1.945-6.4,1.886.573-.123.406a1.622,1.622,0,0,1,.679-.2,2.8,2.8,0,0,1,1.126.125,2.6,2.6,0,0,1,1.593,1.2,2.643,2.643,0,0,1,.076,2.065,2.92,2.92,0,0,1-1.334,1.793,2.541,2.541,0,0,1-1.922.146,2.62,2.62,0,0,1-.99-.544,1.6,1.6,0,0,1-.442-.578l-.607,2Zm5.289-2.764a1.061,1.061,0,0,0-.74-1.484,1.184,1.184,0,0,0-1.452.863,1.159,1.159,0,0,0,.762,1.5,1.1,1.1,0,0,0,1.43-.878" transform="translate(-94.81 -96.975)" fill="#fff"/>
          <path id="パス_68" data-name="パス 68" d="M197.425,196.732a1.055,1.055,0,1,1-.7-1.316,1.055,1.055,0,0,1,.7,1.316" transform="translate(-102.78 -102.785)" fill="#fff"/>
          <g id="グループ_184" data-name="グループ 184" transform="translate(57.311 55.73)" style="mix-blend-mode: multiply;isolation: isolate">
            <g id="グループ_183" data-name="グループ 183">
              <g id="グループ_182" data-name="グループ 182" clip-path="url(#clip-path-4)">
                <path id="パス_69" data-name="パス 69" d="M209.739,126.241a8.645,8.645,0,0,0-8.648-8.642l-42,.017h-3.877l-25.632.01a8.645,8.645,0,0,0-8.642,8.649l.02,51.344a8.644,8.644,0,0,0,8.648,8.641l4.44,0h3.29v13.053l19.148-13.061,12.584,0,24.061-.009,7.989,0a8.644,8.644,0,0,0,8.641-8.649Z" transform="translate(-120.935 -117.599)" fill="#ccc"/>
              </g>
            </g>
          </g>
          <path id="パス_70" data-name="パス 70" d="M217.757,169.588a8.644,8.644,0,0,1-8.642,8.648l-7.989,0-24.061.009-31.146.012h-3.877l-4.44,0a8.645,8.645,0,0,1-8.649-8.641l-.02-51.345a8.645,8.645,0,0,1,8.642-8.648l25.632-.01h3.878l42-.016a8.645,8.645,0,0,1,8.648,8.641Z" transform="translate(-67.832 -57.662)" fill="#fff"/>
          <path id="パス_71" data-name="パス 71" d="M210.6,193.152l8.668,6.838c-.035.032-.07.064-.106.094l-.009.009a5.571,5.571,0,0,1-3.652,1.358l-53.954.021a5.574,5.574,0,0,1-3.643-1.347l-.009-.009c-.036-.03-.071-.062-.106-.093l8.659-6.843,14.9-11.769,1.376-1.088,3.786-2.992,2.019-1.6,2.021,1.594,3.789,2.989,1.377,1.087Z" transform="translate(-83.013 -92.456)" fill="#f1890e"/>
          <path id="パス_72" data-name="パス 72" d="M186.472,158.316l-4.261,2.98-1.533,1.071-.224.157-15.7,10.98-8.881,6.211-.009-.008c-.036-.031-.072-.062-.106-.094a5.58,5.58,0,0,1-1.815-3.635l-.014-35.3a5.579,5.579,0,0,1,1.614-3.447l.08-.078q.114-.11.234-.213l8.886,6.2,19.733,13.777Z" transform="translate(-80.982 -72.045)" fill="#f1890e"/>
          <path id="パス_73" data-name="パス 73" d="M255.228,141.145l.013,34.281a5.579,5.579,0,0,1-1.825,4.136c-.035.032-.07.064-.106.094l-.009.009-8.891-6.208L228.719,162.5l-.224-.157-1.534-1.071L222.7,158.3l2-1.4,14.313-10.01,5.391-3.77,8.886-6.215c.08.069.159.141.235.215l.08.079a5.578,5.578,0,0,1,1.628,3.943" transform="translate(-117.162 -72.028)" fill="#f1890e"/>
          <g id="グループ_187" data-name="グループ 187" transform="translate(74.56 63.525)" style="mix-blend-mode: multiply;isolation: isolate">
            <g id="グループ_186" data-name="グループ 186">
              <g id="グループ_185" data-name="グループ 185" clip-path="url(#clip-path-5)">
                <path id="パス_74" data-name="パス 74" d="M219.131,135.619l.081.079-7.906,7.918-15.834,15.858-1.365,1.368-1.253,1.255a6.453,6.453,0,0,1-9.129,0l-1.254-1.254L181.1,159.48l-15.858-15.858-7.912-7.911.08-.078q.114-.11.234-.213a5.573,5.573,0,0,1,3.642-1.35l53.954-.021A5.572,5.572,0,0,1,218.9,135.4q.121.1.235.215" transform="translate(-157.333 -134.049)" fill="#b3b3b3"/>
              </g>
            </g>
          </g>
          <path id="パス_75" data-name="パス 75" d="M219.219,135.619l-8.26,7.512-4.787,4.353-11.989,10.9-1.522,1.384-1.094,1a4.744,4.744,0,0,1-6.381,0l-1.1-.994-1.523-1.383-16.8-15.255-8.265-7.5q.114-.11.234-.213a5.573,5.573,0,0,1,3.642-1.35l53.954-.021a5.572,5.572,0,0,1,3.653,1.355q.121.1.235.215" transform="translate(-82.862 -70.524)" fill="#f29733"/>
          <g id="グループ_190" data-name="グループ 190" transform="translate(120.265 63.525)" style="mix-blend-mode: multiply;isolation: isolate">
            <g id="グループ_189" data-name="グループ 189">
              <g id="グループ_188" data-name="グループ 188" clip-path="url(#clip-path-6)">
                <path id="パス_76" data-name="パス 76" d="M271.58,139.64l0,11.067a12.571,12.571,0,0,1-16.667-16.655l11.066,0a5.574,5.574,0,0,1,3.653,1.355c.08.069.159.141.235.215l.08.079a5.578,5.578,0,0,1,1.628,3.943" transform="translate(-253.779 -134.048)" fill="#e6e6e6"/>
              </g>
            </g>
          </g>
          <path id="パス_77" data-name="パス 77" d="M182.827,190.6q-3.044,2.251-6.131,4.439l-.77.55-.772.547-1.544,1.093-3.1,2.175-3.107,2.16-1.558,1.074-.779.537-.781.534q-3.123,2.138-6.277,4.23,3.043-2.251,6.13-4.439l.77-.55.772-.547,1.544-1.093,3.1-2.174,3.107-2.16,1.558-1.074.779-.536.781-.534c2.081-1.425,4.17-2.841,6.276-4.23" transform="translate(-83.131 -100.273)" fill="#666"/>
          <path id="パス_78" data-name="パス 78" d="M234.93,190.587c2.107,1.387,4.2,2.8,6.277,4.223l.781.533.779.536,1.557,1.072,3.107,2.156,3.1,2.171,1.544,1.091.772.546.77.549c2.054,1.462,4.1,2.934,6.131,4.432-2.107-1.387-4.2-2.8-6.277-4.223l-.781-.533-.779-.536-1.558-1.072-3.107-2.157-3.1-2.171-1.545-1.091-.772-.546-.77-.549q-3.082-2.194-6.131-4.432" transform="translate(-123.598 -100.269)" fill="#666"/>
          <path id="パス_79" data-name="パス 79" d="M257.1,132.894a10.994,10.994,0,1,1,11,10.99,10.994,10.994,0,0,1-11-10.99" transform="translate(-135.259 -64.13)" fill="#ed1212"/>
          <path id="パス_80" data-name="パス 80" d="M279.187,136.111v-4.4h-2.041l-2.5,1.108h0l-.192.085v2.539l2.344-.923V138.5l0,5.891h2.39Z" transform="translate(-144.39 -69.293)" fill="#fff"/>
          <path id="パス_81" data-name="パス 81" d="M163.537,267.2l19.578-13.353-19.578.008Z" transform="translate(-86.038 -133.551)" fill="#fff"/>
          <path id="パス_82" data-name="パス 82" d="M289.064,75.473a.989.989,0,0,1-.989-.989V57.719a.989.989,0,0,1,1.978,0V74.484a.989.989,0,0,1-.989.989" transform="translate(-151.557 -29.846)" fill="#f1890e"/>
          <path id="パス_83" data-name="パス 83" d="M347.482,135.737H330.717a.989.989,0,1,1,0-1.978h16.765a.989.989,0,1,1,0,1.978" transform="translate(-173.471 -70.371)" fill="#f1890e"/>
          <path id="パス_84" data-name="パス 84" d="M327.547,104.213a.989.989,0,0,1-.5-1.845l14.519-8.383a.989.989,0,1,1,.989,1.713L328.04,104.08a.981.981,0,0,1-.493.133" transform="translate(-171.803 -49.376)" fill="#f1890e"/>
          <path id="パス_85" data-name="パス 85" d="M311.281,81.136a.989.989,0,0,1-.855-1.483l8.382-14.519a.989.989,0,0,1,1.713.989l-8.383,14.519a.988.988,0,0,1-.857.495" transform="translate(-163.246 -34.007)" fill="#f1890e"/>
        </g>
      </g>
    </g>
  </g>
</svg>
