<svg xmlns="http://www.w3.org/2000/svg" xmlns:xlink="http://www.w3.org/1999/xlink" width="240" height="118" viewBox="0 0 240 118">
  <defs>
    <clipPath id="clip-path">
      <path id="長方形_1255" data-name="長方形 1255" d="M13.639,0h109.77a13.639,13.639,0,0,1,13.639,13.639v52.14A13.638,13.638,0,0,1,123.41,79.417H13.637A13.637,13.637,0,0,1,0,65.78V13.639A13.639,13.639,0,0,1,13.639,0Z" fill="none"/>
    </clipPath>
    <radialGradient id="radial-gradient" cx="0.59" cy="0.392" r="0.623" gradientUnits="objectBoundingBox">
      <stop offset="0" stop-color="#fff"/>
      <stop offset="1" stop-color="#f1f3f2"/>
    </radialGradient>
    <clipPath id="clip-path-2">
      <rect id="長方形_1257" data-name="長方形 1257" width="137.048" height="79.417" fill="none"/>
    </clipPath>
    <clipPath id="clip-path-3">
      <rect id="長方形_1258" data-name="長方形 1258" width="33.181" height="32.21" fill="none"/>
    </clipPath>
    <clipPath id="clip-path-4">
      <rect id="長方形_1259" data-name="長方形 1259" width="21.802" height="24.724" fill="none"/>
    </clipPath>
    <clipPath id="clip-path-5">
      <rect id="長方形_1260" data-name="長方形 1260" width="21.725" height="48.468" fill="none"/>
    </clipPath>
    <clipPath id="clip-path-6">
      <rect id="長方形_1261" data-name="長方形 1261" width="8.363" height="8.363" fill="none"/>
    </clipPath>
    <clipPath id="clip-path-7">
      <rect id="長方形_1261-2" data-name="長方形 1261" width="7.015" height="7.015" fill="none"/>
    </clipPath>
    <clipPath id="clip-path-8">
      <rect id="長方形_1262" data-name="長方形 1262" width="6.243" height="10.638" fill="none"/>
    </clipPath>
    <clipPath id="clip-path-10">
      <rect id="長方形_1263" data-name="長方形 1263" width="9.109" height="4.648" fill="none"/>
    </clipPath>
    <clipPath id="clip-path-11">
      <rect id="長方形_1264" data-name="長方形 1264" width="9.195" height="15.002" fill="none"/>
    </clipPath>
  </defs>
  <g id="img_step4" transform="translate(-121.089 -384.103)">
    <rect id="長方形_1267" data-name="長方形 1267" width="240" height="118" transform="translate(121.089 384.103)" fill="none"/>
    <g id="グループ_199" data-name="グループ 199" transform="matrix(0.966, 0.259, -0.259, 0.966, 188.701, 389.721)">
      <g id="グループ_196" data-name="グループ 196">
        <g id="グループ_195" data-name="グループ 195" clip-path="url(#clip-path)">
          <rect id="長方形_1254" data-name="長方形 1254" width="140.029" height="158.304" transform="matrix(0.531, -0.848, 0.848, 0.531, -35.716, 57.063)" fill="url(#radial-gradient)"/>
        </g>
      </g>
      <g id="グループ_198" data-name="グループ 198">
        <g id="グループ_197" data-name="グループ 197" clip-path="url(#clip-path-2)">
          <rect id="長方形_1256" data-name="長方形 1256" width="137.048" height="79.417" rx="10" transform="translate(0 0)" fill="#f1890e"/>
        </g>
      </g>
      <text id="_" data-name="¥" transform="translate(35.294 62.73)" fill="#fff" font-size="20" font-family="ProximaNova-Bold, Proxima Nova" font-weight="700"><tspan x="0" y="0">¥</tspan></text>
      <text id="_5000" data-name="5000" transform="translate(53.228 64.546)" fill="#fff" font-size="28" font-family="ProximaNova-Bold, Proxima Nova" font-weight="700"><tspan x="0" y="0">5000</tspan></text>
      <text id="Gift_Card" data-name="Gift Card" transform="translate(9.946 22.528)" fill="#fff" font-size="14" font-family="ProximaNova-Regular, Proxima Nova"><tspan x="0" y="0">Gift Card</tspan></text>
    </g>
    <g id="deco" transform="translate(154.601 385.103)">
      <g id="グループ_201" data-name="グループ 201" transform="translate(171.756 23.308)">
        <g id="グループ_200" data-name="グループ 200" transform="translate(0 0)" clip-path="url(#clip-path-3)">
          <path id="パス_86" data-name="パス 86" d="M80.131,5.092a15.605,15.605,0,0,1,5.854-2.385L83.669,1.213,84.594,0a19.473,19.473,0,0,0-2.332.413,14.616,14.616,0,0,0-6.812,4.4,19.608,19.608,0,0,0-4.026,6.318,16.634,16.634,0,0,1,3.218,3.312,16.277,16.277,0,0,1,5.488-9.347" transform="translate(-52.804 0)" fill="#f1890e"/>
          <path id="パス_87" data-name="パス 87" d="M9.1,41.638a4.539,4.539,0,0,0-1.952,2.585,30.81,30.81,0,0,0-1.1,6.424.017.017,0,0,0,0,.006C5.71,59.723.214,59.317.214,59.317l1.555,1.736S.116,62.9,0,62.993a9.9,9.9,0,0,0,5.936-2.871,12.2,12.2,0,0,0,3.329-6.633c.526-2.432.744-4.656,1.362-7.059a14.789,14.789,0,0,1,1.165-2.993c.058-.114.116-.222.173-.33a22.188,22.188,0,0,0-2.9-1.44l.035-.029" transform="translate(0 -30.783)" fill="#f1890e"/>
          <path id="パス_88" data-name="パス 88" d="M66.648,65.46V65.5c0,.022,0,.043,0,.064,0,.047.005.094.007.141s0,.074.006.111c0,.021,0,.041,0,.062.011.2.029.392.048.588,0,.026,0,.051.008.076s.005.056.008.084c.015.133.031.265.048.4.013.092.028.184.041.275s.031.191.047.286c.011.06.02.121.032.18s.021.111.032.168c.031.164.065.327.1.491.048.216.1.432.153.648,0,.017.008.034.012.051.014.057.029.115.044.173.009.033.018.068.027.1.014.051.027.1.041.152s.033.12.049.18c.024.084.048.168.071.252,0,0,0,0,0,.006.015.048.029.1.042.145.006.019.012.039.017.057.014.048.029.1.044.143.01.028.017.056.027.084l.024.077c0,.007,0,.015.007.022.013.043.028.087.042.13.01.028.019.057.028.084.016.05.032.1.05.147.03.087.061.174.094.261q.063.174.134.346c.046.116.1.23.146.344.03.067.061.132.091.2l.031.063a8,8,0,0,0,.5.88c.055.086.113.171.173.255.021.028.042.06.065.093l.072.1c.011.017.023.033.035.05l.036.053c.021.031.042.06.064.091l.084.119c.049.067.1.136.152.2s.1.12.13.158c.014.016.027.031.035.043a.11.11,0,0,0,.022.021l.009.014a1.1,1.1,0,0,0,.658.436,1.044,1.044,0,0,0,.216-.018,18.547,18.547,0,0,0-3.808-9.135" transform="translate(-49.272 -48.394)" fill="#f1890e"/>
          <path id="パス_89" data-name="パス 89" d="M51.326,46.883a23.629,23.629,0,0,0-3.766-8.3,16.662,16.662,0,0,0-3.218-3.312,12.53,12.53,0,0,0-5.708-2.611A16.951,16.951,0,0,0,34.825,35l-.035.029a22.188,22.188,0,0,1,2.9,1.44A19.174,19.174,0,0,1,43.1,41.214,18.546,18.546,0,0,1,46.9,50.349c0,.025,0,.038,0,.038,3.939-1.259,4.42-3.5,4.42-3.5" transform="translate(-25.72 -24.148)" fill="#f89d30"/>
        </g>
      </g>
      <g id="グループ_203" data-name="グループ 203" transform="matrix(0.978, 0.208, -0.208, 0.978, 184.638, 70.107)">
        <g id="グループ_202" data-name="グループ 202" clip-path="url(#clip-path-4)">
          <path id="パス_90" data-name="パス 90" d="M18.344,0c.751.355,1.392.9,2.108,1.327a2.835,2.835,0,0,0,.317.209,1.583,1.583,0,0,1,1.02,1.844,46.462,46.462,0,0,1-.94,7.305,16.031,16.031,0,0,1-2.087,4.948,11.072,11.072,0,0,1-5.368,4.2c-1.6.639-3.27,1.1-4.908,1.637a17.033,17.033,0,0,0-5.6,3c-.425.351-.437.34-.851-.045C1.5,23.924.963,23.419.424,22.918c-.58-.539-.58-.536.1-1.011A17.31,17.31,0,0,1,4.86,19.736c1.7-.589,3.442-1.056,5.131-1.688a10.953,10.953,0,0,0,6.562-6.761A25.249,25.249,0,0,0,18,4.009c.087-1.212.186-2.423.209-3.639A.487.487,0,0,1,18.344,0" transform="translate(0 0)" fill="#f1890e"/>
        </g>
      </g>
      <g id="グループ_205" data-name="グループ 205" transform="matrix(0.985, -0.174, 0.174, 0.985, -26.833, 20.06)">
        <g id="グループ_204" data-name="グループ 204" transform="translate(0 0)" clip-path="url(#clip-path-5)">
          <path id="パス_91" data-name="パス 91" d="M3.758,7.107A18.31,18.31,0,0,1,3.849.059l-2.391,1.5L.666,0A21.537,21.537,0,0,0,.111,2.523a17.931,17.931,0,0,0,1.458,9.059A25,25,0,0,0,6.025,18.9a15.346,15.346,0,0,1,4.516-1.426A20.682,20.682,0,0,1,3.758,7.107" transform="translate(0 0)" fill="#f1890e"/>
          <path id="パス_92" data-name="パス 92" d="M0,2.049a5.78,5.78,0,0,0,1.7,3.3A36.919,36.919,0,0,0,7.455,9.832l.006,0C16.081,14.981,13.439,20.2,13.439,20.2l2.313-.618s1.108,2.611,1.15,2.775a11.866,11.866,0,0,0-.344-7.386,15.42,15.42,0,0,0-5.045-6.8C9.38,6.359,7.321,4.965,5.253,3.082A18.508,18.508,0,0,1,2.838.346C2.751.227,2.671.114,2.59,0A20.551,20.551,0,0,0,.014,2.1L0,2.049" transform="translate(1.868 26.114)" fill="#f1890e"/>
          <path id="パス_93" data-name="パス 93" d="M0,.3.041.32.1.352.242.419.352.472.413.5C.608.594.8.68,1,.765L1.078.8c.027.013.056.025.084.036.134.056.269.109.4.163l.282.1q.147.054.3.105c.062.021.125.044.187.063s.116.038.175.058c.171.056.342.109.515.162.228.067.457.132.689.192l.055.015.185.048.109.027c.055.013.109.028.163.04l.194.047.273.063H4.7l.158.035.062.014L5.073,2l.092.018.084.018.025,0,.143.028.093.017c.054.01.107.02.162.028.1.016.193.032.291.046.13.02.259.037.39.051s.262.027.392.038l.227.015.074,0A7.7,7.7,0,0,0,8.1,2.244c.106-.009.211-.021.317-.036.035-.006.075-.01.116-.015l.131-.016.063-.008.066-.008.114-.015.15-.02c.085-.013.172-.027.257-.043s.156-.032.206-.044c.022,0,.041-.01.056-.012a.125.125,0,0,0,.029-.01h.017a1.02,1.02,0,0,0,.691-.419,1.129,1.129,0,0,0,.071-.223A18.8,18.8,0,0,0,0,.3" transform="translate(11.252 22.981)" fill="#f1890e"/>
          <path id="パス_94" data-name="パス 94" d="M18.931.9A23.426,23.426,0,0,0,9.375.228,15.349,15.349,0,0,0,4.859,1.654,11.778,11.778,0,0,0,0,5.911a20.909,20.909,0,0,0,.7,5l.014.05a20.579,20.579,0,0,1,2.576-2.1,17.586,17.586,0,0,1,6.794-2.834A18.8,18.8,0,0,1,20.468,7.1l.038.017C20.9,2.563,18.931.9,18.931.9" transform="translate(1.166 17.251)" fill="#f89d30"/>
        </g>
      </g>
      <g id="グループ_207" data-name="グループ 207" transform="translate(185.367 60.614)">
        <g id="グループ_206" data-name="グループ 206" clip-path="url(#clip-path-6)">
          <path id="パス_95" data-name="パス 95" d="M8.363,4.181A4.181,4.181,0,1,1,4.182,0,4.181,4.181,0,0,1,8.363,4.181" transform="translate(0 0)" fill="#ffc27b"/>
        </g>
      </g>
      <g id="グループ_214" data-name="グループ 214" transform="translate(-6.592 9.807)">
        <g id="グループ_206-2" data-name="グループ 206" clip-path="url(#clip-path-7)">
          <path id="パス_95-2" data-name="パス 95" d="M7.015,3.507A3.507,3.507,0,1,1,3.507,0,3.507,3.507,0,0,1,7.015,3.507" transform="translate(0 0)" fill="#ffc27b"/>
        </g>
      </g>
      <g id="グループ_209" data-name="グループ 209" transform="translate(-29.304 81.894) rotate(-56)">
        <g id="グループ_208" data-name="グループ 208" transform="translate(0 0)" clip-path="url(#clip-path-8)">
          <path id="パス_96" data-name="パス 96" d="M6.007,1.909C5.186,1.306,4.389.669,3.523,0c-.063.146-.116.253-.155.365C2.684,2.31,1.935,4.23,1.186,6.15.822,7.082.442,8.008.065,8.935c-.074.182-.131.339.105.446q1.341.605,2.679,1.218a.245.245,0,0,0,.378-.154q.069-.166.134-.334C3.94,8.6,4.528,7.086,5.1,5.569c.373-.992.718-2,1.084-2.991a.491.491,0,0,0-.175-.669" transform="translate(0 0)" fill="#f1890e"/>
        </g>
      </g>
      <g id="グループ_215" data-name="グループ 215" transform="translate(2.978 28.483) rotate(-56)">
        <g id="グループ_208-2" data-name="グループ 208" transform="translate(0 0)" clip-path="url(#clip-path-8)">
          <path id="パス_96-2" data-name="パス 96" d="M6.007,1.909C5.186,1.306,4.389.669,3.523,0c-.063.146-.116.253-.155.365C2.684,2.31,1.935,4.23,1.186,6.15.822,7.082.442,8.008.065,8.935c-.074.182-.131.339.105.446q1.341.605,2.679,1.218a.245.245,0,0,0,.378-.154q.069-.166.134-.334C3.94,8.6,4.528,7.086,5.1,5.569c.373-.992.718-2,1.084-2.991a.491.491,0,0,0-.175-.669" transform="translate(0 0)" fill="#f1890e"/>
        </g>
      </g>
      <path id="パス_97" data-name="パス 97" d="M7.795,0,0,2.931,5.488,7.906Z" transform="translate(-33.513 55.705)" fill="#ffc27b"/>
      <g id="グループ_211" data-name="グループ 211" transform="translate(190.672 4.094) rotate(-34)">
        <g id="グループ_210" data-name="グループ 210" transform="translate(0 0)" clip-path="url(#clip-path-10)">
          <path id="パス_98" data-name="パス 98" d="M8.736,2.889c.1-.942.24-1.88.373-2.889-.147.018-.257.025-.366.045C6.86.4,4.967.7,3.074,1c-.919.143-1.841.271-2.762.4-.18.025-.334.053-.309.292Q.143,3.05.276,4.412c.019.194.123.256.3.231q.166-.022.331-.049c1.488-.241,2.976-.475,4.462-.725.972-.164,1.94-.355,2.911-.527.266-.047.422-.141.456-.453" transform="translate(0 0)" fill="#f1890e"/>
        </g>
      </g>
      <g id="グループ_213" data-name="グループ 213" transform="translate(-8.773 82.189)">
        <g id="グループ_212" data-name="グループ 212" clip-path="url(#clip-path-11)">
          <path id="パス_99" data-name="パス 99" d="M4.431.27A8.659,8.659,0,0,1,5.838,2.06,10.462,10.462,0,0,1,6.972,4.4a1.194,1.194,0,0,1-.607,1.561c-.187.108-.385.2-.579.3-.407.2-.828.37-1.22.595a.982.982,0,0,0-.443,1.351,2.8,2.8,0,0,0,.494.774,23.221,23.221,0,0,0,2.34,2.1c.645.528,1.3,1.046,1.893,1.63.413.406.513.327-.024.737-.259.2-.514.4-.78.592A1.7,1.7,0,0,0,7.255,15a.565.565,0,0,1-.391-.242q-.809-.916-1.609-1.84c-.747-.861-1.49-1.726-2.239-2.587a5.311,5.311,0,0,1-.788-1.168,1.67,1.67,0,0,1,.363-1.955A6.852,6.852,0,0,0,3.631,5.38a.969.969,0,0,0,.05-.532A2.92,2.92,0,0,0,2.652,3.106,13.486,13.486,0,0,0,1,1.785,4.368,4.368,0,0,1,0,.933C1.234.624,2.395.342,3.549.039A.842.842,0,0,1,4.431.27" transform="translate(0 0)" fill="#fbc27b"/>
        </g>
      </g>
      <path id="パス_100" data-name="パス 100" d="M.439,8.974l6.921-4L0,0Z" transform="translate(169.848 14.334)" fill="#fbc27b"/>
      <g id="グループ_216" data-name="グループ 216" transform="translate(165.25 95.826)">
        <g id="グループ_212-2" data-name="グループ 212" transform="translate(0 0)" clip-path="url(#clip-path-11)">
          <path id="パス_99-2" data-name="パス 99" d="M4.764.27A8.659,8.659,0,0,0,3.357,2.06,10.462,10.462,0,0,0,2.224,4.4,1.194,1.194,0,0,0,2.83,5.964c.187.108.385.2.579.3.407.2.828.37,1.22.595a.982.982,0,0,1,.443,1.351,2.8,2.8,0,0,1-.494.774,23.222,23.222,0,0,1-2.34,2.1c-.645.528-1.3,1.046-1.893,1.63-.413.406-.513.327.024.737.259.2.514.4.78.592A1.7,1.7,0,0,1,1.94,15a.565.565,0,0,0,.391-.242q.809-.916,1.609-1.84c.747-.861,1.49-1.726,2.239-2.587a5.311,5.311,0,0,0,.788-1.168A1.67,1.67,0,0,0,6.6,7.211,6.852,6.852,0,0,1,5.564,5.38a.969.969,0,0,1-.05-.532A2.92,2.92,0,0,1,6.543,3.106,13.487,13.487,0,0,1,8.2,1.785a4.368,4.368,0,0,0,1-.852C7.961.624,6.8.342,5.646.039A.842.842,0,0,0,4.764.27" transform="translate(0 0)" fill="#fbc27b"/>
        </g>
      </g>
    </g>
  </g>
</svg>
