<svg xmlns="http://www.w3.org/2000/svg" xmlns:xlink="http://www.w3.org/1999/xlink" width="240" height="180" viewBox="0 0 240 180">
  <defs>
    <clipPath id="clip-path">
      <rect id="長方形_1240" data-name="長方形 1240" width="97.463" height="180" fill="none"/>
    </clipPath>
    <clipPath id="clip-path-3">
      <rect id="長方形_1236" data-name="長方形 1236" width="79.962" height="77.27" fill="none"/>
    </clipPath>
  </defs>
  <g id="img_step1" transform="translate(71)">
    <rect id="長方形_1266" data-name="長方形 1266" width="240" height="180" transform="translate(-71)" fill="none"/>
    <g id="グループ_163" data-name="グループ 163" clip-path="url(#clip-path)">
      <g id="グループ_162" data-name="グループ 162">
        <g id="グループ_161" data-name="グループ 161" clip-path="url(#clip-path)">
          <path id="パス_12" data-name="パス 12" d="M88.538,180H8.184A8.16,8.16,0,0,1,0,171.622V8.177A7.992,7.992,0,0,1,8.183,0H88.538c4.724.01,8.935,3.559,8.925,8.177V171.622c-.01,4.617-4.2,8.388-8.925,8.378" transform="translate(0 0)" fill="#f1890e"/>
          <path id="パス_13" data-name="パス 13" d="M.834,171.624.84,8.179A7.925,7.925,0,0,1,8.883,0L8.9,0H8.184A7.993,7.993,0,0,0,0,8.177V171.622A8.159,8.159,0,0,0,8.184,180h.639a8.093,8.093,0,0,1-7.989-8.376" transform="translate(0 0)" fill="#f1890e"/>
          <path id="パス_14" data-name="パス 14" d="M153.383,0h-.626c4.621.037,8.727,3.576,8.718,8.175l-.006,163.445A8.72,8.72,0,0,1,152.7,180h.686c4.724.01,8.916-3.761,8.925-8.378V8.177c.01-4.617-4.2-8.167-8.925-8.177" transform="translate(-64.845)" fill="#f1890e"/>
          <path id="パス_15" data-name="パス 15" d="M81.091,280.008a5.489,5.489,0,1,1-5.449,3.234,5.493,5.493,0,0,1,5.449-3.234" transform="translate(-31.922 -118.908)" fill="#cc761a"/>
          <path id="パス_16" data-name="パス 16" d="M86.333,280.167A5.491,5.491,0,0,0,84.689,280a5.487,5.487,0,0,1,.018,10.96,5.486,5.486,0,0,0,1.626-10.8" transform="translate(-35.966 -118.911)" fill="#ef9d43"/>
          <path id="パス_17" data-name="パス 17" d="M79.37,290.8A5.487,5.487,0,0,1,80.439,280a5.487,5.487,0,1,0,.018,10.96,5.481,5.481,0,0,1-1.086-.164" transform="translate(-31.716 -118.912)" fill="#aa600f"/>
          <line id="線_1" data-name="線 1" x2="14.167" transform="translate(41.065 5.898)" fill="none" stroke="#cc7619" stroke-linecap="round" stroke-width="3"/>
          <rect id="長方形_1235" data-name="長方形 1235" width="80.525" height="141.574" transform="translate(8.178 12.492)"/>
          <g id="グループ_160" data-name="グループ 160" transform="translate(8.177 12.491)" opacity="0.16">
            <g id="グループ_159" data-name="グループ 159">
              <g id="グループ_158" data-name="グループ 158" clip-path="url(#clip-path-3)">
                <path id="パス_18" data-name="パス 18" d="M14.214,21.713V98.982l79.962-77.27Z" transform="translate(-14.213 -21.712)" fill="#fff"/>
              </g>
            </g>
          </g>
          <path id="パス_19" data-name="パス 19" d="M26.879,137.969v4.3l-2.813-4.3h-2.3v8.1h2.3V141.8l2.813,4.273h2.3v-8.1Z" transform="translate(-9.245 -62.878)" fill="#f1890e"/>
          <path id="パス_20" data-name="パス 20" d="M40.955,141.73a4.15,4.15,0,0,0-1.9-.381,3.934,3.934,0,0,0-2.239.521,2.018,2.018,0,0,0-.883,1.225l2.109.326a.822.822,0,0,1,.9-.632c.474,0,.744.2.744.566v.251c-.771.018-1.478.055-1.821.1a4.257,4.257,0,0,0-1.412.426,1.558,1.558,0,0,0-.827,1.477,1.812,1.812,0,0,0,.725,1.531,2.593,2.593,0,0,0,1.523.4,3.333,3.333,0,0,0,1.272-.242,1.523,1.523,0,0,0,.54-.436v.519h2.127v-3.928a1.862,1.862,0,0,0-.863-1.727m-1.264,3.5a1.1,1.1,0,0,1-1.18.919c-.427,0-.688-.2-.688-.548,0-.316.2-.5.7-.622a5.185,5.185,0,0,1,1.171-.111Z" transform="translate(-15.132 -64.313)" fill="#f1890e"/>
          <path id="パス_21" data-name="パス 21" d="M51.421,144.684a1.1,1.1,0,0,1-.575.139.574.574,0,0,1-.614-.538v-2.073h1.145v-1.745H50.232v-1.484H48.086v1.484H46.957v1.745h1.129v2.64c0,1.151.641,1.662,2.1,1.662a4.259,4.259,0,0,0,1.346-.177Z" transform="translate(-19.942 -63.309)" fill="#f1890e"/>
          <rect id="長方形_1237" data-name="長方形 1237" width="2.14" height="1.494" transform="translate(32.266 75.286)" fill="#f1890e"/>
          <rect id="長方形_1238" data-name="長方形 1238" width="2.14" height="5.861" transform="translate(32.266 77.355)" fill="#f1890e"/>
          <path id="パス_22" data-name="パス 22" d="M62.888,147.546c-.047-.235-2.239-6.2-2.239-6.2H62.72l1.4,4.187,1.4-4.187H67.6s-2.2,5.961-2.239,6.2Z" transform="translate(-25.757 -64.314)" fill="#f1890e"/>
          <path id="パス_23" data-name="パス 23" d="M74.441,144.914a1.126,1.126,0,0,0,.242.632.969.969,0,0,0,.808.343,1.229,1.229,0,0,0,.789-.242.836.836,0,0,0,.3-.455l1.941.52a2.82,2.82,0,0,1-.65,1,3.179,3.179,0,0,1-2.295.835,3.483,3.483,0,0,1-2.043-.575,3.082,3.082,0,0,1-1.216-2.61,3,3,0,0,1,3.168-3.185,2.832,2.832,0,0,1,2.776,1.69,4.509,4.509,0,0,1,.346,1.709c.008.222.008.222.017.334Zm2.062-1.3a.925.925,0,0,0-1.013-.771,1.051,1.051,0,0,0-.845.371,1,1,0,0,0-.186.4Z" transform="translate(-30.711 -64.242)" fill="#f1890e"/>
          <path id="パス_24" data-name="パス 24" d="M92.083,143.383a3.572,3.572,0,0,1-.874,1.885,3.423,3.423,0,0,1-2.656,1.011c-2.527,0-4.069-1.578-4.069-4.188a3.767,3.767,0,0,1,4.077-4.123,3.437,3.437,0,0,1,2.816,1.263,3.031,3.031,0,0,1,.6,1.42l-2.285.418a1.362,1.362,0,0,0-.307-.733,1.2,1.2,0,0,0-.938-.464c-1.06,0-1.636.78-1.636,2.21a2.564,2.564,0,0,0,.586,1.838,1.506,1.506,0,0,0,1.022.418,1.321,1.321,0,0,0,.937-.353,1.274,1.274,0,0,0,.408-.92Z" transform="translate(-35.879 -62.878)" fill="#fff"/>
          <path id="パス_25" data-name="パス 25" d="M103.838,142.069a4.131,4.131,0,0,0-1.9-.381,3.921,3.921,0,0,0-2.239.521,2.018,2.018,0,0,0-.883,1.225l2.109.325a.82.82,0,0,1,.9-.631c.474,0,.743.2.743.566v.251c-.771.019-1.478.056-1.821.1a4.225,4.225,0,0,0-1.412.427,1.557,1.557,0,0,0-.827,1.476,1.814,1.814,0,0,0,.725,1.532,2.6,2.6,0,0,0,1.523.4,3.35,3.35,0,0,0,1.273-.241,1.548,1.548,0,0,0,.538-.437v.52H104.7V143.8a1.859,1.859,0,0,0-.864-1.727m-1.263,3.5a1.1,1.1,0,0,1-1.179.92c-.427,0-.688-.2-.688-.548,0-.315.205-.5.7-.622a5.262,5.262,0,0,1,1.171-.112Z" transform="translate(-41.838 -64.457)" fill="#fff"/>
          <path id="パス_26" data-name="パス 26" d="M117.442,141.806a2.9,2.9,0,0,0-1.84.657,2.883,2.883,0,0,0-2.61-.55v-.225h-2.138v6.06h2.138v-3.034a.77.77,0,0,1,1.54,0v3.034h2.138v-3.034a.77.77,0,0,1,1.541,0v3.034h2.139v-3.034a2.912,2.912,0,0,0-2.909-2.908" transform="translate(-47.078 -64.457)" fill="#fff"/>
          <path id="パス_27" data-name="パス 27" d="M128.942,149.02v-7.475h2.2v.473a1.815,1.815,0,0,1,.66-.437,3.128,3.128,0,0,1,1.244-.232,2.9,2.9,0,0,1,2.091.761,2.952,2.952,0,0,1,.752,2.182,3.258,3.258,0,0,1-.845,2.35,2.839,2.839,0,0,1-2.007.781,2.924,2.924,0,0,1-1.235-.26,1.783,1.783,0,0,1-.66-.474v2.331Zm4.756-4.671A1.185,1.185,0,0,0,132.425,143a1.322,1.322,0,0,0-1.272,1.393,1.294,1.294,0,0,0,1.3,1.355c.78,0,1.244-.529,1.244-1.4" transform="translate(-54.76 -64.314)" fill="#fff"/>
          <path id="パス_28" data-name="パス 28" d="M144.484,148.951a1.179,1.179,0,1,1-1.179-1.178,1.179,1.179,0,0,1,1.179,1.178" transform="translate(-60.36 -67.042)" fill="#fff"/>
        </g>
      </g>
    </g>
  </g>
</svg>
